# xmcd
#
# Track frame offsets: 
#        150
#        7656
#        24449
#        46201
#        61041
#        78592
#        102203
#        123454
#        149164
#        173229
#        189489
#        207550
#        227434
#
# Disc length: 3416 seconds
#
# Revision: 0
# Processed by: cddbd v1.5.2PL0 Copyright (c) Steve Scherf et al.
# Submitted via: ExactAudioCopy v0.99pb5
#
DISCID=a60d560d
DTITLE=Bernard Allison Group - The Otherside
DYEAR=2009
DGENRE=Blues Rock
TTITLE0=Send It In
TTITLE1=I Wouldn't Treat A Dog (The Way You Treated Me)
TTITLE2=Tired of Tryin
TTITLE3=As Simple As That
TTITLE4=The Otherside
TTITLE5=Slide Master
TTITLE6=Allison Way
TTITLE7=Still Rainin
TTITLE8=Leavin the Bayou
TTITLE9=Life Goes On
TTITLE10=Fire
TTITLE11=Clear Vision
TTITLE12=Let's Try It Again
EXTD=
EXTT0=
EXTT1=
EXTT2=
EXTT3=
EXTT4=
EXTT5=
EXTT6=
EXTT7=
EXTT8=
EXTT9=
EXTT10=
EXTT11=
EXTT12=
PLAYORDER=
